<svg width="990" height="153" viewBox="0 0 990 153" fill="none" xmlns="http://www.w3.org/2000/svg">
<path d="M1.2 16V4.8H8.128V5.904H2.544V9.808H7.648V10.896H2.544V14.896H8.128V16H1.2Z" fill="#E4E4EF"/>
<path d="M30 10.5C30 7.18629 32.6863 4.5 36 4.5H883C886.314 4.5 889 7.18629 889 10.5C889 13.8137 886.314 16.5 883 16.5H36C32.6863 16.5 30 13.8137 30 10.5Z" fill="#21222C"/>
<path d="M30 11C30 7.68629 32.6863 5 36 5H161C164.314 5 167 7.68629 167 11C167 14.3137 164.314 17 161 17H36C32.6863 17 30 14.3137 30 11Z" fill="#D3A0FA"/>
<path d="M915.21 16V13.6H909.53V12.56L914.97 4.8H916.538V12.416H918.202V13.6H916.538V16H915.21ZM911.018 12.416H915.274V6.288L911.018 12.416ZM923.56 16.192C922.579 16.192 921.731 15.952 921.016 15.472C920.312 14.9813 919.768 14.304 919.384 13.44C919 12.5653 918.808 11.552 918.808 10.4C918.808 9.248 919 8.24 919.384 7.376C919.768 6.50133 920.312 5.824 921.016 5.344C921.72 4.85333 922.568 4.608 923.56 4.608C924.542 4.608 925.379 4.85333 926.072 5.344C926.776 5.824 927.315 6.50133 927.688 7.376C928.072 8.24 928.264 9.248 928.264 10.4C928.264 11.552 928.072 12.5653 927.688 13.44C927.315 14.304 926.776 14.9813 926.072 15.472C925.379 15.952 924.542 16.192 923.56 16.192ZM923.544 15.008C924.195 15.008 924.771 14.8267 925.272 14.464C925.774 14.0907 926.168 13.5627 926.456 12.88C926.744 12.1867 926.888 11.36 926.888 10.4C926.888 9.44 926.744 8.61867 926.456 7.936C926.168 7.24267 925.774 6.71467 925.272 6.352C924.771 5.98933 924.195 5.808 923.544 5.808C922.904 5.808 922.328 5.98933 921.816 6.352C921.315 6.71467 920.915 7.24267 920.616 7.936C920.328 8.61867 920.184 9.44 920.184 10.4C920.184 11.36 920.328 12.1867 920.616 12.88C920.915 13.5627 921.315 14.0907 921.816 14.464C922.328 14.8267 922.904 15.008 923.544 15.008ZM936.043 18.32C935.467 17.7653 934.934 17.104 934.443 16.336C933.952 15.5787 933.558 14.7253 933.259 13.776C932.971 12.8267 932.827 11.792 932.827 10.672C932.827 9.552 932.971 8.51733 933.259 7.568C933.558 6.61867 933.952 5.76 934.443 4.992C934.934 4.224 935.467 3.568 936.043 3.024H937.419V3.152C936.768 3.792 936.198 4.50667 935.707 5.296C935.227 6.08533 934.848 6.93333 934.571 7.84C934.304 8.736 934.171 9.68 934.171 10.672C934.171 11.664 934.304 12.6133 934.571 13.52C934.848 14.416 935.232 15.2587 935.723 16.048C936.214 16.8373 936.779 17.552 937.419 18.192V18.32H936.043ZM939.828 16V6.304L937.924 6.768V5.824L940.276 4.8H941.188V16H939.828ZM946.997 16.192C946.187 16.192 945.504 16.0427 944.949 15.744C944.395 15.4347 943.952 15.024 943.621 14.512C943.291 14 943.045 13.4293 942.885 12.8C942.736 12.16 942.661 11.5093 942.661 10.848C942.661 9.61067 942.832 8.528 943.173 7.6C943.515 6.66133 944.005 5.93067 944.645 5.408C945.296 4.87467 946.075 4.608 946.981 4.608C947.685 4.608 948.288 4.74667 948.789 5.024C949.301 5.30133 949.701 5.66933 949.989 6.128C950.288 6.58667 950.469 7.09333 950.533 7.648H949.285C949.179 7.05067 948.923 6.592 948.517 6.272C948.112 5.94133 947.595 5.776 946.965 5.776C946.411 5.776 945.909 5.952 945.461 6.304C945.013 6.64533 944.656 7.168 944.389 7.872C944.133 8.576 943.984 9.47733 943.941 10.576C943.941 10.5973 943.941 10.6187 943.941 10.64C943.941 10.6613 943.941 10.6827 943.941 10.704C944.101 10.3627 944.336 10.0533 944.645 9.776C944.955 9.488 945.323 9.25867 945.749 9.088C946.176 8.91733 946.651 8.832 947.173 8.832C947.813 8.832 948.411 8.98133 948.965 9.28C949.52 9.57867 949.968 10 950.309 10.544C950.661 11.0773 950.837 11.7067 950.837 12.432C950.837 13.0613 950.683 13.664 950.373 14.24C950.064 14.816 949.621 15.2853 949.045 15.648C948.469 16.0107 947.787 16.192 946.997 16.192ZM946.901 15.008C947.392 15.008 947.829 14.9013 948.213 14.688C948.608 14.464 948.917 14.1653 949.141 13.792C949.365 13.408 949.477 12.976 949.477 12.496C949.477 11.9947 949.365 11.5573 949.141 11.184C948.917 10.8107 948.608 10.5227 948.213 10.32C947.829 10.1067 947.392 10 946.901 10C946.411 10 945.968 10.1173 945.573 10.352C945.179 10.576 944.864 10.88 944.629 11.264C944.405 11.6373 944.293 12.0533 944.293 12.512C944.293 12.992 944.405 13.4187 944.629 13.792C944.864 14.1653 945.179 14.464 945.573 14.688C945.968 14.9013 946.411 15.008 946.901 15.008ZM952.203 16.08C951.936 16.08 951.712 15.9947 951.531 15.824C951.36 15.6427 951.275 15.424 951.275 15.168C951.275 14.912 951.36 14.6987 951.531 14.528C951.712 14.3467 951.936 14.256 952.203 14.256C952.469 14.256 952.688 14.3467 952.859 14.528C953.029 14.6987 953.115 14.912 953.115 15.168C953.115 15.424 953.029 15.6427 952.859 15.824C952.688 15.9947 952.469 16.08 952.203 16.08ZM958.054 16.192C957.073 16.192 956.225 15.952 955.51 15.472C954.806 14.9813 954.262 14.304 953.878 13.44C953.494 12.5653 953.302 11.552 953.302 10.4C953.302 9.248 953.494 8.24 953.878 7.376C954.262 6.50133 954.806 5.824 955.51 5.344C956.214 4.85333 957.062 4.608 958.054 4.608C959.035 4.608 959.873 4.85333 960.566 5.344C961.27 5.824 961.809 6.50133 962.182 7.376C962.566 8.24 962.758 9.248 962.758 10.4C962.758 11.552 962.566 12.5653 962.182 13.44C961.809 14.304 961.27 14.9813 960.566 15.472C959.873 15.952 959.035 16.192 958.054 16.192ZM958.038 15.008C958.689 15.008 959.265 14.8267 959.766 14.464C960.267 14.0907 960.662 13.5627 960.95 12.88C961.238 12.1867 961.382 11.36 961.382 10.4C961.382 9.44 961.238 8.61867 960.95 7.936C960.662 7.24267 960.267 6.71467 959.766 6.352C959.265 5.98933 958.689 5.808 958.038 5.808C957.398 5.808 956.822 5.98933 956.31 6.352C955.809 6.71467 955.409 7.24267 955.11 7.936C954.822 8.61867 954.678 9.44 954.678 10.4C954.678 11.36 954.822 12.1867 955.11 12.88C955.409 13.5627 955.809 14.0907 956.31 14.464C956.822 14.8267 957.398 15.008 958.038 15.008ZM968.135 16.192C967.324 16.192 966.641 16.0427 966.087 15.744C965.532 15.4347 965.089 15.024 964.759 14.512C964.428 14 964.183 13.4293 964.023 12.8C963.873 12.16 963.799 11.5093 963.799 10.848C963.799 9.61067 963.969 8.528 964.311 7.6C964.652 6.66133 965.143 5.93067 965.783 5.408C966.433 4.87467 967.212 4.608 968.119 4.608C968.823 4.608 969.425 4.74667 969.927 5.024C970.439 5.30133 970.839 5.66933 971.127 6.128C971.425 6.58667 971.607 7.09333 971.671 7.648H970.423C970.316 7.05067 970.06 6.592 969.655 6.272C969.249 5.94133 968.732 5.776 968.103 5.776C967.548 5.776 967.047 5.952 966.599 6.304C966.151 6.64533 965.793 7.168 965.527 7.872C965.271 8.576 965.121 9.47733 965.079 10.576C965.079 10.5973 965.079 10.6187 965.079 10.64C965.079 10.6613 965.079 10.6827 965.079 10.704C965.239 10.3627 965.473 10.0533 965.783 9.776C966.092 9.488 966.46 9.25867 966.887 9.088C967.313 8.91733 967.788 8.832 968.311 8.832C968.951 8.832 969.548 8.98133 970.103 9.28C970.657 9.57867 971.105 10 971.447 10.544C971.799 11.0773 971.975 11.7067 971.975 12.432C971.975 13.0613 971.82 13.664 971.511 14.24C971.201 14.816 970.759 15.2853 970.183 15.648C969.607 16.0107 968.924 16.192 968.135 16.192ZM968.039 15.008C968.529 15.008 968.967 14.9013 969.351 14.688C969.745 14.464 970.055 14.1653 970.279 13.792C970.503 13.408 970.615 12.976 970.615 12.496C970.615 11.9947 970.503 11.5573 970.279 11.184C970.055 10.8107 969.745 10.5227 969.351 10.32C968.967 10.1067 968.529 10 968.039 10C967.548 10 967.105 10.1173 966.711 10.352C966.316 10.576 966.001 10.88 965.767 11.264C965.543 11.6373 965.431 12.0533 965.431 12.512C965.431 12.992 965.543 13.4187 965.767 13.792C966.001 14.1653 966.316 14.464 966.711 14.688C967.105 14.9013 967.548 15.008 968.039 15.008ZM974.404 16L980.916 4.8H982.26L975.748 16H974.404ZM981.444 16.192C980.964 16.192 980.532 16.0853 980.148 15.872C979.764 15.648 979.454 15.3333 979.22 14.928C978.996 14.5227 978.884 14.048 978.884 13.504C978.884 12.9493 978.996 12.4747 979.22 12.08C979.454 11.6747 979.764 11.3653 980.148 11.152C980.532 10.928 980.964 10.816 981.444 10.816C981.934 10.816 982.366 10.928 982.74 11.152C983.124 11.3653 983.428 11.6747 983.652 12.08C983.876 12.4747 983.988 12.9493 983.988 13.504C983.988 14.048 983.876 14.5227 983.652 14.928C983.428 15.3333 983.124 15.648 982.74 15.872C982.356 16.0853 981.924 16.192 981.444 16.192ZM981.428 15.152C981.684 15.152 981.918 15.0933 982.132 14.976C982.345 14.848 982.516 14.6613 982.644 14.416C982.782 14.1707 982.852 13.8667 982.852 13.504C982.852 13.1307 982.788 12.8213 982.66 12.576C982.532 12.3307 982.361 12.1493 982.148 12.032C981.934 11.904 981.7 11.84 981.444 11.84C981.198 11.84 980.964 11.904 980.74 12.032C980.526 12.1493 980.35 12.3307 980.212 12.576C980.084 12.8213 980.02 13.1307 980.02 13.504C980.02 13.8667 980.084 14.1707 980.212 14.416C980.35 14.6613 980.526 14.848 980.74 14.976C980.953 15.0933 981.182 15.152 981.428 15.152ZM975.332 10C974.852 10 974.42 9.89333 974.036 9.68C973.652 9.456 973.342 9.14133 973.108 8.736C972.884 8.33067 972.772 7.856 972.772 7.312C972.772 6.75733 972.884 6.28267 973.108 5.888C973.342 5.48267 973.652 5.17333 974.036 4.96C974.43 4.736 974.868 4.624 975.348 4.624C975.828 4.624 976.26 4.736 976.644 4.96C977.028 5.17333 977.332 5.48267 977.556 5.888C977.78 6.28267 977.892 6.75733 977.892 7.312C977.892 7.856 977.78 8.33067 977.556 8.736C977.332 9.14133 977.022 9.456 976.628 9.68C976.244 9.89333 975.812 10 975.332 10ZM975.332 8.96C975.588 8.96 975.822 8.90133 976.036 8.784C976.249 8.656 976.42 8.46933 976.548 8.224C976.676 7.97867 976.74 7.67467 976.74 7.312C976.74 6.93867 976.676 6.62933 976.548 6.384C976.42 6.128 976.249 5.94133 976.036 5.824C975.822 5.696 975.593 5.632 975.348 5.632C975.102 5.632 974.868 5.696 974.644 5.824C974.42 5.94133 974.238 6.128 974.1 6.384C973.972 6.62933 973.908 6.93867 973.908 7.312C973.908 7.67467 973.972 7.97867 974.1 8.224C974.238 8.46933 974.414 8.656 974.628 8.784C974.852 8.90133 975.086 8.96 975.332 8.96ZM986.031 18.32H984.655V18.192C985.306 17.552 985.871 16.8373 986.351 16.048C986.842 15.2587 987.22 14.416 987.487 13.52C987.764 12.6133 987.903 11.664 987.903 10.672C987.903 9.68 987.764 8.736 987.487 7.84C987.22 6.93333 986.842 6.08533 986.351 5.296C985.871 4.50667 985.306 3.792 984.655 3.152V3.024H986.031C986.618 3.568 987.151 4.224 987.631 4.992C988.122 5.76 988.511 6.61867 988.799 7.568C989.098 8.51733 989.247 9.552 989.247 10.672C989.247 11.792 989.098 12.8267 988.799 13.776C988.511 14.7253 988.122 15.5787 987.631 16.336C987.151 17.104 986.618 17.7653 986.031 18.32Z" fill="#E4E4EF"/>
<path d="M1.2 49V37.8H2.544V49H1.2Z" fill="#E4E4EF"/>
<path d="M30 43.5C30 40.1863 32.6863 37.5 36 37.5H883C886.314 37.5 889 40.1863 889 43.5C889 46.8137 886.314 49.5 883 49.5H36C32.6863 49.5 30 46.8137 30 43.5Z" fill="#21222C"/>
<path d="M30 43.5C30 40.1863 32.6863 37.5 36 37.5H124C127.314 37.5 130 40.1863 130 43.5C130 46.8137 127.314 49.5 124 49.5H36C32.6863 49.5 30 46.8137 30 43.5Z" fill="#D3A0FA"/>
<path d="M917.086 49V48.056C917.854 47.4587 918.579 46.856 919.262 46.248C919.945 45.64 920.553 45.0373 921.086 44.44C921.619 43.832 922.035 43.24 922.334 42.664C922.643 42.088 922.798 41.5333 922.798 41C922.798 40.6053 922.729 40.2427 922.59 39.912C922.451 39.5707 922.233 39.2933 921.934 39.08C921.635 38.8667 921.225 38.76 920.702 38.76C920.211 38.76 919.795 38.872 919.454 39.096C919.123 39.3093 918.873 39.5973 918.702 39.96C918.542 40.312 918.462 40.7013 918.462 41.128H917.166C917.177 40.392 917.337 39.7627 917.646 39.24C917.955 38.7067 918.377 38.3013 918.91 38.024C919.443 37.7467 920.046 37.608 920.718 37.608C921.39 37.608 921.982 37.736 922.494 37.992C923.006 38.2373 923.406 38.6053 923.694 39.096C923.993 39.5867 924.142 40.2053 924.142 40.952C924.142 41.4747 924.035 41.9973 923.822 42.52C923.609 43.0427 923.321 43.5547 922.958 44.056C922.595 44.5467 922.19 45.0213 921.742 45.48C921.305 45.9387 920.851 46.3707 920.382 46.776C919.923 47.1813 919.486 47.5493 919.07 47.88H924.526V49H917.086ZM929.389 49.192C928.685 49.192 928.082 49.0533 927.581 48.776C927.08 48.4987 926.68 48.1307 926.381 47.672C926.093 47.2027 925.912 46.696 925.837 46.152H927.085C927.202 46.7493 927.464 47.2133 927.869 47.544C928.274 47.864 928.786 48.024 929.405 48.024C929.97 48.024 930.472 47.8533 930.909 47.512C931.346 47.1707 931.698 46.648 931.965 45.944C932.242 45.24 932.397 44.3493 932.429 43.272C932.429 43.2507 932.429 43.224 932.429 43.192C932.429 43.16 932.429 43.128 932.429 43.096C932.258 43.4373 932.018 43.752 931.709 44.04C931.41 44.3173 931.048 44.5413 930.621 44.712C930.205 44.8827 929.73 44.968 929.197 44.968C928.568 44.968 927.97 44.8187 927.405 44.52C926.85 44.2213 926.397 43.8053 926.045 43.272C925.704 42.728 925.533 42.0933 925.533 41.368C925.533 40.7387 925.688 40.136 925.997 39.56C926.306 38.984 926.749 38.5147 927.325 38.152C927.901 37.7893 928.584 37.608 929.373 37.608C930.184 37.608 930.866 37.7627 931.421 38.072C931.976 38.3707 932.418 38.776 932.749 39.288C933.08 39.8 933.32 40.376 933.469 41.016C933.629 41.6453 933.709 42.2907 933.709 42.952C933.709 44.1787 933.538 45.2613 933.197 46.2C932.856 47.1387 932.365 47.8747 931.725 48.408C931.085 48.9307 930.306 49.192 929.389 49.192ZM929.469 43.8C929.97 43.8 930.413 43.688 930.797 43.464C931.192 43.2293 931.506 42.9253 931.741 42.552C931.976 42.168 932.093 41.7467 932.093 41.288C932.093 40.808 931.976 40.3813 931.741 40.008C931.506 39.624 931.192 39.3253 930.797 39.112C930.413 38.8987 929.97 38.792 929.469 38.792C928.978 38.792 928.536 38.904 928.141 39.128C927.757 39.3413 927.453 39.6347 927.229 40.008C927.005 40.3813 926.893 40.8133 926.893 41.304C926.893 41.8053 927.005 42.2427 927.229 42.616C927.453 42.9893 927.757 43.2827 928.141 43.496C928.536 43.6987 928.978 43.8 929.469 43.8ZM941.606 51.32C941.03 50.7653 940.496 50.104 940.006 49.336C939.515 48.5787 939.12 47.7253 938.822 46.776C938.534 45.8267 938.39 44.792 938.39 43.672C938.39 42.552 938.534 41.5173 938.822 40.568C939.12 39.6187 939.515 38.76 940.006 37.992C940.496 37.224 941.03 36.568 941.606 36.024H942.982V36.152C942.331 36.792 941.76 37.5067 941.27 38.296C940.79 39.0853 940.411 39.9333 940.134 40.84C939.867 41.736 939.734 42.68 939.734 43.672C939.734 44.664 939.867 45.6133 940.134 46.52C940.411 47.416 940.795 48.2587 941.286 49.048C941.776 49.8373 942.342 50.552 942.982 51.192V51.32H941.606ZM945.391 49V39.304L943.487 39.768V38.824L945.839 37.8H946.751V49H945.391ZM949.744 49V39.304L947.84 39.768V38.824L950.192 37.8H951.104V49H949.744ZM953.281 49.08C953.014 49.08 952.79 48.9947 952.609 48.824C952.438 48.6427 952.353 48.424 952.353 48.168C952.353 47.912 952.438 47.6987 952.609 47.528C952.79 47.3467 953.014 47.256 953.281 47.256C953.548 47.256 953.766 47.3467 953.937 47.528C954.108 47.6987 954.193 47.912 954.193 48.168C954.193 48.424 954.108 48.6427 953.937 48.824C953.766 48.9947 953.548 49.08 953.281 49.08ZM959 49.192C958.19 49.192 957.507 49.0427 956.952 48.744C956.398 48.4347 955.955 48.024 955.624 47.512C955.294 47 955.048 46.4293 954.888 45.8C954.739 45.16 954.664 44.5093 954.664 43.848C954.664 42.6107 954.835 41.528 955.176 40.6C955.518 39.6613 956.008 38.9307 956.648 38.408C957.299 37.8747 958.078 37.608 958.984 37.608C959.688 37.608 960.291 37.7467 960.792 38.024C961.304 38.3013 961.704 38.6693 961.992 39.128C962.291 39.5867 962.472 40.0933 962.536 40.648H961.288C961.182 40.0507 960.926 39.592 960.52 39.272C960.115 38.9413 959.598 38.776 958.968 38.776C958.414 38.776 957.912 38.952 957.464 39.304C957.016 39.6453 956.659 40.168 956.392 40.872C956.136 41.576 955.987 42.4773 955.944 43.576C955.944 43.5973 955.944 43.6187 955.944 43.64C955.944 43.6613 955.944 43.6827 955.944 43.704C956.104 43.3627 956.339 43.0533 956.648 42.776C956.958 42.488 957.326 42.2587 957.752 42.088C958.179 41.9173 958.654 41.832 959.176 41.832C959.816 41.832 960.414 41.9813 960.968 42.28C961.523 42.5787 961.971 43 962.312 43.544C962.664 44.0773 962.84 44.7067 962.84 45.432C962.84 46.0613 962.686 46.664 962.376 47.24C962.067 47.816 961.624 48.2853 961.048 48.648C960.472 49.0107 959.79 49.192 959 49.192ZM958.904 48.008C959.395 48.008 959.832 47.9013 960.216 47.688C960.611 47.464 960.92 47.1653 961.144 46.792C961.368 46.408 961.48 45.976 961.48 45.496C961.48 44.9947 961.368 44.5573 961.144 44.184C960.92 43.8107 960.611 43.5227 960.216 43.32C959.832 43.1067 959.395 43 958.904 43C958.414 43 957.971 43.1173 957.576 43.352C957.182 43.576 956.867 43.88 956.632 44.264C956.408 44.6373 956.296 45.0533 956.296 45.512C956.296 45.992 956.408 46.4187 956.632 46.792C956.867 47.1653 957.182 47.464 957.576 47.688C957.971 47.9013 958.414 48.008 958.904 48.008ZM967.91 49.192C967.153 49.192 966.492 49.0533 965.926 48.776C965.361 48.4987 964.913 48.12 964.582 47.64C964.262 47.16 964.06 46.616 963.974 46.008H965.286C965.414 46.616 965.708 47.1067 966.166 47.48C966.625 47.8533 967.212 48.04 967.926 48.04C968.46 48.04 968.913 47.9173 969.286 47.672C969.67 47.416 969.964 47.08 970.166 46.664C970.38 46.2373 970.486 45.7627 970.486 45.24C970.486 44.6853 970.38 44.2053 970.166 43.8C969.964 43.384 969.67 43.0587 969.286 42.824C968.913 42.5893 968.481 42.472 967.99 42.472C967.372 42.472 966.844 42.6053 966.406 42.872C965.98 43.1387 965.665 43.4853 965.462 43.912H964.166L965.11 37.8H971.014V38.968H966.15L965.51 42.392C965.777 42.0827 966.134 41.832 966.582 41.64C967.03 41.4373 967.548 41.336 968.134 41.336C968.678 41.336 969.174 41.4373 969.622 41.64C970.07 41.832 970.454 42.104 970.774 42.456C971.105 42.808 971.356 43.2187 971.526 43.688C971.697 44.1573 971.782 44.6693 971.782 45.224C971.782 45.7573 971.697 46.264 971.526 46.744C971.356 47.224 971.1 47.6507 970.758 48.024C970.428 48.3867 970.022 48.6747 969.542 48.888C969.073 49.0907 968.529 49.192 967.91 49.192ZM974.404 49L980.916 37.8H982.26L975.748 49H974.404ZM981.444 49.192C980.964 49.192 980.532 49.0853 980.148 48.872C979.764 48.648 979.454 48.3333 979.22 47.928C978.996 47.5227 978.884 47.048 978.884 46.504C978.884 45.9493 978.996 45.4747 979.22 45.08C979.454 44.6747 979.764 44.3653 980.148 44.152C980.532 43.928 980.964 43.816 981.444 43.816C981.934 43.816 982.366 43.928 982.74 44.152C983.124 44.3653 983.428 44.6747 983.652 45.08C983.876 45.4747 983.988 45.9493 983.988 46.504C983.988 47.048 983.876 47.5227 983.652 47.928C983.428 48.3333 983.124 48.648 982.74 48.872C982.356 49.0853 981.924 49.192 981.444 49.192ZM981.428 48.152C981.684 48.152 981.918 48.0933 982.132 47.976C982.345 47.848 982.516 47.6613 982.644 47.416C982.782 47.1707 982.852 46.8667 982.852 46.504C982.852 46.1307 982.788 45.8213 982.66 45.576C982.532 45.3307 982.361 45.1493 982.148 45.032C981.934 44.904 981.7 44.84 981.444 44.84C981.198 44.84 980.964 44.904 980.74 45.032C980.526 45.1493 980.35 45.3307 980.212 45.576C980.084 45.8213 980.02 46.1307 980.02 46.504C980.02 46.8667 980.084 47.1707 980.212 47.416C980.35 47.6613 980.526 47.848 980.74 47.976C980.953 48.0933 981.182 48.152 981.428 48.152ZM975.332 43C974.852 43 974.42 42.8933 974.036 42.68C973.652 42.456 973.342 42.1413 973.108 41.736C972.884 41.3307 972.772 40.856 972.772 40.312C972.772 39.7573 972.884 39.2827 973.108 38.888C973.342 38.4827 973.652 38.1733 974.036 37.96C974.43 37.736 974.868 37.624 975.348 37.624C975.828 37.624 976.26 37.736 976.644 37.96C977.028 38.1733 977.332 38.4827 977.556 38.888C977.78 39.2827 977.892 39.7573 977.892 40.312C977.892 40.856 977.78 41.3307 977.556 41.736C977.332 42.1413 977.022 42.456 976.628 42.68C976.244 42.8933 975.812 43 975.332 43ZM975.332 41.96C975.588 41.96 975.822 41.9013 976.036 41.784C976.249 41.656 976.42 41.4693 976.548 41.224C976.676 40.9787 976.74 40.6747 976.74 40.312C976.74 39.9387 976.676 39.6293 976.548 39.384C976.42 39.128 976.249 38.9413 976.036 38.824C975.822 38.696 975.593 38.632 975.348 38.632C975.102 38.632 974.868 38.696 974.644 38.824C974.42 38.9413 974.238 39.128 974.1 39.384C973.972 39.6293 973.908 39.9387 973.908 40.312C973.908 40.6747 973.972 40.9787 974.1 41.224C974.238 41.4693 974.414 41.656 974.628 41.784C974.852 41.9013 975.086 41.96 975.332 41.96ZM986.031 51.32H984.655V51.192C985.306 50.552 985.871 49.8373 986.351 49.048C986.842 48.2587 987.22 47.416 987.487 46.52C987.764 45.6133 987.903 44.664 987.903 43.672C987.903 42.68 987.764 41.736 987.487 40.84C987.22 39.9333 986.842 39.0853 986.351 38.296C985.871 37.5067 985.306 36.792 984.655 36.152V36.024H986.031C986.618 36.568 987.151 37.224 987.631 37.992C988.122 38.76 988.511 39.6187 988.799 40.568C989.098 41.5173 989.247 42.552 989.247 43.672C989.247 44.792 989.098 45.8267 988.799 46.776C988.511 47.7253 988.122 48.5787 987.631 49.336C987.151 50.104 986.618 50.7653 986.031 51.32Z" fill="#E4E4EF"/>
<path d="M3.808 82V71.904H0.464V70.8H8.496V71.904H5.152V82H3.808Z" fill="#E4E4EF"/>
<path d="M30 76.5C30 73.1863 32.6863 70.5 36 70.5H883C886.314 70.5 889 73.1863 889 76.5C889 79.8137 886.314 82.5 883 82.5H36C32.6863 82.5 30 79.8137 30 76.5Z" fill="#21222C"/>
<path d="M30 76.5C30 73.1863 32.6863 70.5 36 70.5H120.5C123.814 70.5 126.5 73.1863 126.5 76.5C126.5 79.8137 123.814 82.5 120.5 82.5H36C32.6863 82.5 30 79.8137 30 76.5Z" fill="#D3A0FA"/>
<path d="M917.961 82V81.056C918.729 80.4587 919.454 79.856 920.137 79.248C920.82 78.64 921.428 78.0373 921.961 77.44C922.494 76.832 922.91 76.24 923.209 75.664C923.518 75.088 923.673 74.5333 923.673 74C923.673 73.6053 923.604 73.2427 923.465 72.912C923.326 72.5707 923.108 72.2933 922.809 72.08C922.51 71.8667 922.1 71.76 921.577 71.76C921.086 71.76 920.67 71.872 920.329 72.096C919.998 72.3093 919.748 72.5973 919.577 72.96C919.417 73.312 919.337 73.7013 919.337 74.128H918.041C918.052 73.392 918.212 72.7627 918.521 72.24C918.83 71.7067 919.252 71.3013 919.785 71.024C920.318 70.7467 920.921 70.608 921.593 70.608C922.265 70.608 922.857 70.736 923.369 70.992C923.881 71.2373 924.281 71.6053 924.569 72.096C924.868 72.5867 925.017 73.2053 925.017 73.952C925.017 74.4747 924.91 74.9973 924.697 75.52C924.484 76.0427 924.196 76.5547 923.833 77.056C923.47 77.5467 923.065 78.0213 922.617 78.48C922.18 78.9387 921.726 79.3707 921.257 79.776C920.798 80.1813 920.361 80.5493 919.945 80.88H925.401V82H917.961ZM930.155 82.192C929.429 82.192 928.773 82.0587 928.187 81.792C927.611 81.5147 927.152 81.136 926.811 80.656C926.48 80.1653 926.315 79.6 926.315 78.96C926.315 78.5013 926.405 78.0747 926.587 77.68C926.768 77.2853 927.019 76.944 927.339 76.656C927.669 76.3573 928.048 76.1493 928.475 76.032C927.877 75.8187 927.413 75.488 927.083 75.04C926.763 74.592 926.603 74.1067 926.603 73.584C926.603 73.0293 926.741 72.528 927.019 72.08C927.307 71.632 927.717 71.2747 928.251 71.008C928.784 70.7413 929.419 70.608 930.155 70.608C930.901 70.608 931.536 70.7413 932.059 71.008C932.592 71.2747 933.003 71.632 933.291 72.08C933.579 72.528 933.723 73.0293 933.723 73.584C933.723 74.1067 933.557 74.592 933.227 75.04C932.907 75.488 932.443 75.8187 931.835 76.032C932.283 76.1493 932.667 76.3573 932.987 76.656C933.307 76.944 933.557 77.2853 933.739 77.68C933.92 78.0747 934.011 78.5013 934.011 78.96C934.011 79.6 933.84 80.1653 933.499 80.656C933.157 81.136 932.699 81.5147 932.123 81.792C931.547 82.0587 930.891 82.192 930.155 82.192ZM930.155 81.008C930.997 81.008 931.627 80.816 932.043 80.432C932.459 80.0373 932.667 79.52 932.667 78.88C932.667 78.1547 932.437 77.6053 931.979 77.232C931.531 76.8587 930.923 76.672 930.155 76.672C929.397 76.672 928.789 76.8587 928.331 77.232C927.883 77.6053 927.659 78.1547 927.659 78.88C927.659 79.52 927.867 80.0373 928.283 80.432C928.699 80.816 929.323 81.008 930.155 81.008ZM930.155 75.552C930.837 75.552 931.376 75.376 931.771 75.024C932.165 74.672 932.363 74.2187 932.363 73.664C932.363 73.0347 932.165 72.56 931.771 72.24C931.387 71.92 930.848 71.76 930.155 71.76C929.483 71.76 928.949 71.92 928.555 72.24C928.171 72.56 927.979 73.0347 927.979 73.664C927.979 74.2187 928.171 74.672 928.555 75.024C928.949 75.376 929.483 75.552 930.155 75.552ZM942.059 84.32C941.483 83.7653 940.949 83.104 940.459 82.336C939.968 81.5787 939.573 80.7253 939.275 79.776C938.987 78.8267 938.843 77.792 938.843 76.672C938.843 75.552 938.987 74.5173 939.275 73.568C939.573 72.6187 939.968 71.76 940.459 70.992C940.949 70.224 941.483 69.568 942.059 69.024H943.435V69.152C942.784 69.792 942.213 70.5067 941.723 71.296C941.243 72.0853 940.864 72.9333 940.587 73.84C940.32 74.736 940.187 75.68 940.187 76.672C940.187 77.664 940.32 78.6133 940.587 79.52C940.864 80.416 941.248 81.2587 941.739 82.048C942.229 82.8373 942.795 83.552 943.435 84.192V84.32H942.059ZM945.844 82V72.304L943.94 72.768V71.824L946.292 70.8H947.204V82H945.844ZM950.197 82V72.304L948.293 72.768V71.824L950.645 70.8H951.557V82H950.197ZM953.734 82.08C953.467 82.08 953.243 81.9947 953.062 81.824C952.891 81.6427 952.806 81.424 952.806 81.168C952.806 80.912 952.891 80.6987 953.062 80.528C953.243 80.3467 953.467 80.256 953.734 80.256C954.001 80.256 954.219 80.3467 954.39 80.528C954.561 80.6987 954.646 80.912 954.646 81.168C954.646 81.424 954.561 81.6427 954.39 81.824C954.219 81.9947 954.001 82.08 953.734 82.08ZM955.73 82V81.056C956.498 80.4587 957.223 79.856 957.906 79.248C958.589 78.64 959.197 78.0373 959.73 77.44C960.263 76.832 960.679 76.24 960.978 75.664C961.287 75.088 961.442 74.5333 961.442 74C961.442 73.6053 961.373 73.2427 961.234 72.912C961.095 72.5707 960.877 72.2933 960.578 72.08C960.279 71.8667 959.869 71.76 959.346 71.76C958.855 71.76 958.439 71.872 958.098 72.096C957.767 72.3093 957.517 72.5973 957.346 72.96C957.186 73.312 957.106 73.7013 957.106 74.128H955.81C955.821 73.392 955.981 72.7627 956.29 72.24C956.599 71.7067 957.021 71.3013 957.554 71.024C958.087 70.7467 958.69 70.608 959.362 70.608C960.034 70.608 960.626 70.736 961.138 70.992C961.65 71.2373 962.05 71.6053 962.338 72.096C962.637 72.5867 962.786 73.2053 962.786 73.952C962.786 74.4747 962.679 74.9973 962.466 75.52C962.253 76.0427 961.965 76.5547 961.602 77.056C961.239 77.5467 960.834 78.0213 960.386 78.48C959.949 78.9387 959.495 79.3707 959.026 79.776C958.567 80.1813 958.13 80.5493 957.714 80.88H963.17V82H955.73ZM969.331 82V79.6H963.651V78.56L969.091 70.8H970.659V78.416H972.323V79.6H970.659V82H969.331ZM965.139 78.416H969.395V72.288L965.139 78.416ZM974.404 82L980.916 70.8H982.26L975.748 82H974.404ZM981.444 82.192C980.964 82.192 980.532 82.0853 980.148 81.872C979.764 81.648 979.454 81.3333 979.22 80.928C978.996 80.5227 978.884 80.048 978.884 79.504C978.884 78.9493 978.996 78.4747 979.22 78.08C979.454 77.6747 979.764 77.3653 980.148 77.152C980.532 76.928 980.964 76.816 981.444 76.816C981.934 76.816 982.366 76.928 982.74 77.152C983.124 77.3653 983.428 77.6747 983.652 78.08C983.876 78.4747 983.988 78.9493 983.988 79.504C983.988 80.048 983.876 80.5227 983.652 80.928C983.428 81.3333 983.124 81.648 982.74 81.872C982.356 82.0853 981.924 82.192 981.444 82.192ZM981.428 81.152C981.684 81.152 981.918 81.0933 982.132 80.976C982.345 80.848 982.516 80.6613 982.644 80.416C982.782 80.1707 982.852 79.8667 982.852 79.504C982.852 79.1307 982.788 78.8213 982.66 78.576C982.532 78.3307 982.361 78.1493 982.148 78.032C981.934 77.904 981.7 77.84 981.444 77.84C981.198 77.84 980.964 77.904 980.74 78.032C980.526 78.1493 980.35 78.3307 980.212 78.576C980.084 78.8213 980.02 79.1307 980.02 79.504C980.02 79.8667 980.084 80.1707 980.212 80.416C980.35 80.6613 980.526 80.848 980.74 80.976C980.953 81.0933 981.182 81.152 981.428 81.152ZM975.332 76C974.852 76 974.42 75.8933 974.036 75.68C973.652 75.456 973.342 75.1413 973.108 74.736C972.884 74.3307 972.772 73.856 972.772 73.312C972.772 72.7573 972.884 72.2827 973.108 71.888C973.342 71.4827 973.652 71.1733 974.036 70.96C974.43 70.736 974.868 70.624 975.348 70.624C975.828 70.624 976.26 70.736 976.644 70.96C977.028 71.1733 977.332 71.4827 977.556 71.888C977.78 72.2827 977.892 72.7573 977.892 73.312C977.892 73.856 977.78 74.3307 977.556 74.736C977.332 75.1413 977.022 75.456 976.628 75.68C976.244 75.8933 975.812 76 975.332 76ZM975.332 74.96C975.588 74.96 975.822 74.9013 976.036 74.784C976.249 74.656 976.42 74.4693 976.548 74.224C976.676 73.9787 976.74 73.6747 976.74 73.312C976.74 72.9387 976.676 72.6293 976.548 72.384C976.42 72.128 976.249 71.9413 976.036 71.824C975.822 71.696 975.593 71.632 975.348 71.632C975.102 71.632 974.868 71.696 974.644 71.824C974.42 71.9413 974.238 72.128 974.1 72.384C973.972 72.6293 973.908 72.9387 973.908 73.312C973.908 73.6747 973.972 73.9787 974.1 74.224C974.238 74.4693 974.414 74.656 974.628 74.784C974.852 74.9013 975.086 74.96 975.332 74.96ZM986.031 84.32H984.655V84.192C985.306 83.552 985.871 82.8373 986.351 82.048C986.842 81.2587 987.22 80.416 987.487 79.52C987.764 78.6133 987.903 77.664 987.903 76.672C987.903 75.68 987.764 74.736 987.487 73.84C987.22 72.9333 986.842 72.0853 986.351 71.296C985.871 70.5067 985.306 69.792 984.655 69.152V69.024H986.031C986.618 69.568 987.151 70.224 987.631 70.992C988.122 71.76 988.511 72.6187 988.799 73.568C989.098 74.5173 989.247 75.552 989.247 76.672C989.247 77.792 989.098 78.8267 988.799 79.776C988.511 80.7253 988.122 81.5787 987.631 82.336C987.151 83.104 986.618 83.7653 986.031 84.32Z" fill="#E4E4EF"/>
<path d="M6.208 115.192C5.13067 115.192 4.18133 114.952 3.36 114.472C2.54933 113.981 1.90933 113.304 1.44 112.44C0.981333 111.565 0.752 110.552 0.752 109.4C0.752 108.259 0.981333 107.256 1.44 106.392C1.90933 105.517 2.54933 104.835 3.36 104.344C4.18133 103.853 5.13067 103.608 6.208 103.608C7.30667 103.608 8.26133 103.853 9.072 104.344C9.89333 104.835 10.528 105.517 10.976 106.392C11.4347 107.256 11.664 108.259 11.664 109.4C11.664 110.552 11.4347 111.565 10.976 112.44C10.528 113.304 9.89333 113.981 9.072 114.472C8.26133 114.952 7.30667 115.192 6.208 115.192ZM6.208 114.008C7.01867 114.008 7.728 113.827 8.336 113.464C8.95467 113.091 9.43467 112.563 9.776 111.88C10.1173 111.187 10.288 110.36 10.288 109.4C10.288 108.44 10.1173 107.619 9.776 106.936C9.43467 106.243 8.95467 105.715 8.336 105.352C7.728 104.989 7.01867 104.808 6.208 104.808C5.39733 104.808 4.688 104.989 4.08 105.352C3.472 105.715 2.992 106.243 2.64 106.936C2.29867 107.619 2.128 108.44 2.128 109.4C2.128 110.36 2.29867 111.187 2.64 111.88C2.992 112.563 3.472 113.091 4.08 113.464C4.688 113.827 5.39733 114.008 6.208 114.008Z" fill="#E4E4EF"/>
<path d="M30 109.5C30 106.186 32.6863 103.5 36 103.5H883C886.314 103.5 889 106.186 889 109.5C889 112.814 886.314 115.5 883 115.5H36C32.6863 115.5 30 112.814 30 109.5Z" fill="#21222C"/>
<path d="M30 109.5C30 106.186 32.6863 103.5 36 103.5H99.9C103.214 103.5 105.9 106.186 105.9 109.5C105.9 112.814 103.214 115.5 99.9 115.5H36C32.6863 115.5 30 112.814 30 109.5Z" fill="#D3A0FA"/>
<path d="M917.642 115V114.056C918.41 113.459 919.136 112.856 919.818 112.248C920.501 111.64 921.109 111.037 921.642 110.44C922.176 109.832 922.592 109.24 922.89 108.664C923.2 108.088 923.354 107.533 923.354 107C923.354 106.605 923.285 106.243 923.146 105.912C923.008 105.571 922.789 105.293 922.49 105.08C922.192 104.867 921.781 104.76 921.258 104.76C920.768 104.76 920.352 104.872 920.01 105.096C919.68 105.309 919.429 105.597 919.258 105.96C919.098 106.312 919.018 106.701 919.018 107.128H917.722C917.733 106.392 917.893 105.763 918.202 105.24C918.512 104.707 918.933 104.301 919.466 104.024C920 103.747 920.602 103.608 921.274 103.608C921.946 103.608 922.538 103.736 923.05 103.992C923.562 104.237 923.962 104.605 924.25 105.096C924.549 105.587 924.698 106.205 924.698 106.952C924.698 107.475 924.592 107.997 924.378 108.52C924.165 109.043 923.877 109.555 923.514 110.056C923.152 110.547 922.746 111.021 922.298 111.48C921.861 111.939 921.408 112.371 920.938 112.776C920.48 113.181 920.042 113.549 919.626 113.88H925.082V115H917.642ZM926.246 115V114.056C927.014 113.459 927.739 112.856 928.422 112.248C929.104 111.64 929.712 111.037 930.246 110.44C930.779 109.832 931.195 109.24 931.494 108.664C931.803 108.088 931.958 107.533 931.958 107C931.958 106.605 931.888 106.243 931.75 105.912C931.611 105.571 931.392 105.293 931.094 105.08C930.795 104.867 930.384 104.76 929.862 104.76C929.371 104.76 928.955 104.872 928.614 105.096C928.283 105.309 928.032 105.597 927.862 105.96C927.702 106.312 927.622 106.701 927.622 107.128H926.326C926.336 106.392 926.496 105.763 926.806 105.24C927.115 104.707 927.536 104.301 928.07 104.024C928.603 103.747 929.206 103.608 929.878 103.608C930.55 103.608 931.142 103.736 931.654 103.992C932.166 104.237 932.566 104.605 932.854 105.096C933.152 105.587 933.302 106.205 933.302 106.952C933.302 107.475 933.195 107.997 932.982 108.52C932.768 109.043 932.48 109.555 932.118 110.056C931.755 110.547 931.35 111.021 930.902 111.48C930.464 111.939 930.011 112.371 929.542 112.776C929.083 113.181 928.646 113.549 928.23 113.88H933.686V115H926.246ZM941.459 117.32C940.883 116.765 940.349 116.104 939.859 115.336C939.368 114.579 938.973 113.725 938.675 112.776C938.387 111.827 938.243 110.792 938.243 109.672C938.243 108.552 938.387 107.517 938.675 106.568C938.973 105.619 939.368 104.76 939.859 103.992C940.349 103.224 940.883 102.568 941.459 102.024H942.835V102.152C942.184 102.792 941.613 103.507 941.123 104.296C940.643 105.085 940.264 105.933 939.987 106.84C939.72 107.736 939.587 108.68 939.587 109.672C939.587 110.664 939.72 111.613 939.987 112.52C940.264 113.416 940.648 114.259 941.139 115.048C941.629 115.837 942.195 116.552 942.835 117.192V117.32H941.459ZM947.052 115.192C946.326 115.192 945.67 115.059 945.084 114.792C944.508 114.515 944.049 114.136 943.708 113.656C943.377 113.165 943.212 112.6 943.212 111.96C943.212 111.501 943.302 111.075 943.484 110.68C943.665 110.285 943.916 109.944 944.236 109.656C944.566 109.357 944.945 109.149 945.372 109.032C944.774 108.819 944.31 108.488 943.98 108.04C943.66 107.592 943.5 107.107 943.5 106.584C943.5 106.029 943.638 105.528 943.916 105.08C944.204 104.632 944.614 104.275 945.148 104.008C945.681 103.741 946.316 103.608 947.052 103.608C947.798 103.608 948.433 103.741 948.956 104.008C949.489 104.275 949.9 104.632 950.188 105.08C950.476 105.528 950.62 106.029 950.62 106.584C950.62 107.107 950.454 107.592 950.124 108.04C949.804 108.488 949.34 108.819 948.732 109.032C949.18 109.149 949.564 109.357 949.884 109.656C950.204 109.944 950.454 110.285 950.635 110.68C950.817 111.075 950.908 111.501 950.908 111.96C950.908 112.6 950.737 113.165 950.396 113.656C950.054 114.136 949.596 114.515 949.02 114.792C948.444 115.059 947.788 115.192 947.052 115.192ZM947.052 114.008C947.894 114.008 948.524 113.816 948.94 113.432C949.356 113.037 949.564 112.52 949.564 111.88C949.564 111.155 949.334 110.605 948.876 110.232C948.428 109.859 947.82 109.672 947.052 109.672C946.294 109.672 945.686 109.859 945.228 110.232C944.78 110.605 944.556 111.155 944.556 111.88C944.556 112.52 944.764 113.037 945.18 113.432C945.596 113.816 946.22 114.008 947.052 114.008ZM947.052 108.552C947.734 108.552 948.273 108.376 948.668 108.024C949.062 107.672 949.26 107.219 949.26 106.664C949.26 106.035 949.062 105.56 948.668 105.24C948.284 104.92 947.745 104.76 947.052 104.76C946.38 104.76 945.846 104.92 945.452 105.24C945.068 105.56 944.876 106.035 944.876 106.664C944.876 107.219 945.068 107.672 945.452 108.024C945.846 108.376 946.38 108.552 947.052 108.552ZM952.922 115.08C952.655 115.08 952.431 114.995 952.25 114.824C952.079 114.643 951.994 114.424 951.994 114.168C951.994 113.912 952.079 113.699 952.25 113.528C952.431 113.347 952.655 113.256 952.922 113.256C953.188 113.256 953.407 113.347 953.578 113.528C953.748 113.699 953.834 113.912 953.834 114.168C953.834 114.424 953.748 114.643 953.578 114.824C953.407 114.995 953.188 115.08 952.922 115.08ZM958.773 115.192C958.048 115.192 957.392 115.059 956.805 114.792C956.229 114.515 955.771 114.136 955.429 113.656C955.099 113.165 954.933 112.6 954.933 111.96C954.933 111.501 955.024 111.075 955.205 110.68C955.387 110.285 955.637 109.944 955.957 109.656C956.288 109.357 956.667 109.149 957.093 109.032C956.496 108.819 956.032 108.488 955.701 108.04C955.381 107.592 955.221 107.107 955.221 106.584C955.221 106.029 955.36 105.528 955.637 105.08C955.925 104.632 956.336 104.275 956.869 104.008C957.403 103.741 958.037 103.608 958.773 103.608C959.52 103.608 960.155 103.741 960.677 104.008C961.211 104.275 961.621 104.632 961.909 105.08C962.197 105.528 962.341 106.029 962.341 106.584C962.341 107.107 962.176 107.592 961.845 108.04C961.525 108.488 961.061 108.819 960.453 109.032C960.901 109.149 961.285 109.357 961.605 109.656C961.925 109.944 962.176 110.285 962.357 110.68C962.539 111.075 962.629 111.501 962.629 111.96C962.629 112.6 962.459 113.165 962.117 113.656C961.776 114.136 961.317 114.515 960.741 114.792C960.165 115.059 959.509 115.192 958.773 115.192ZM958.773 114.008C959.616 114.008 960.245 113.816 960.661 113.432C961.077 113.037 961.285 112.52 961.285 111.88C961.285 111.155 961.056 110.605 960.597 110.232C960.149 109.859 959.541 109.672 958.773 109.672C958.016 109.672 957.408 109.859 956.949 110.232C956.501 110.605 956.277 111.155 956.277 111.88C956.277 112.52 956.485 113.037 956.901 113.432C957.317 113.816 957.941 114.008 958.773 114.008ZM958.773 108.552C959.456 108.552 959.995 108.376 960.389 108.024C960.784 107.672 960.981 107.219 960.981 106.664C960.981 106.035 960.784 105.56 960.389 105.24C960.005 104.92 959.467 104.76 958.773 104.76C958.101 104.76 957.568 104.92 957.173 105.24C956.789 105.56 956.597 106.035 956.597 106.664C956.597 107.219 956.789 107.672 957.173 108.024C957.568 108.376 958.101 108.552 958.773 108.552ZM969.331 115V112.6H963.651V111.56L969.091 103.8H970.659V111.416H972.323V112.6H970.659V115H969.331ZM965.139 111.416H969.395V105.288L965.139 111.416ZM974.404 115L980.916 103.8H982.26L975.748 115H974.404ZM981.444 115.192C980.964 115.192 980.532 115.085 980.148 114.872C979.764 114.648 979.454 114.333 979.22 113.928C978.996 113.523 978.884 113.048 978.884 112.504C978.884 111.949 978.996 111.475 979.22 111.08C979.454 110.675 979.764 110.365 980.148 110.152C980.532 109.928 980.964 109.816 981.444 109.816C981.934 109.816 982.366 109.928 982.74 110.152C983.124 110.365 983.428 110.675 983.652 111.08C983.876 111.475 983.988 111.949 983.988 112.504C983.988 113.048 983.876 113.523 983.652 113.928C983.428 114.333 983.124 114.648 982.74 114.872C982.356 115.085 981.924 115.192 981.444 115.192ZM981.428 114.152C981.684 114.152 981.918 114.093 982.132 113.976C982.345 113.848 982.516 113.661 982.644 113.416C982.782 113.171 982.852 112.867 982.852 112.504C982.852 112.131 982.788 111.821 982.66 111.576C982.532 111.331 982.361 111.149 982.148 111.032C981.934 110.904 981.7 110.84 981.444 110.84C981.198 110.84 980.964 110.904 980.74 111.032C980.526 111.149 980.35 111.331 980.212 111.576C980.084 111.821 980.02 112.131 980.02 112.504C980.02 112.867 980.084 113.171 980.212 113.416C980.35 113.661 980.526 113.848 980.74 113.976C980.953 114.093 981.182 114.152 981.428 114.152ZM975.332 109C974.852 109 974.42 108.893 974.036 108.68C973.652 108.456 973.342 108.141 973.108 107.736C972.884 107.331 972.772 106.856 972.772 106.312C972.772 105.757 972.884 105.283 973.108 104.888C973.342 104.483 973.652 104.173 974.036 103.96C974.43 103.736 974.868 103.624 975.348 103.624C975.828 103.624 976.26 103.736 976.644 103.96C977.028 104.173 977.332 104.483 977.556 104.888C977.78 105.283 977.892 105.757 977.892 106.312C977.892 106.856 977.78 107.331 977.556 107.736C977.332 108.141 977.022 108.456 976.628 108.68C976.244 108.893 975.812 109 975.332 109ZM975.332 107.96C975.588 107.96 975.822 107.901 976.036 107.784C976.249 107.656 976.42 107.469 976.548 107.224C976.676 106.979 976.74 106.675 976.74 106.312C976.74 105.939 976.676 105.629 976.548 105.384C976.42 105.128 976.249 104.941 976.036 104.824C975.822 104.696 975.593 104.632 975.348 104.632C975.102 104.632 974.868 104.696 974.644 104.824C974.42 104.941 974.238 105.128 974.1 105.384C973.972 105.629 973.908 105.939 973.908 106.312C973.908 106.675 973.972 106.979 974.1 107.224C974.238 107.469 974.414 107.656 974.628 107.784C974.852 107.901 975.086 107.96 975.332 107.96ZM986.031 117.32H984.655V117.192C985.306 116.552 985.871 115.837 986.351 115.048C986.842 114.259 987.22 113.416 987.487 112.52C987.764 111.613 987.903 110.664 987.903 109.672C987.903 108.68 987.764 107.736 987.487 106.84C987.22 105.933 986.842 105.085 986.351 104.296C985.871 103.507 985.306 102.792 984.655 102.152V102.024H986.031C986.618 102.568 987.151 103.224 987.631 103.992C988.122 104.76 988.511 105.619 988.799 106.568C989.098 107.517 989.247 108.552 989.247 109.672C989.247 110.792 989.098 111.827 988.799 112.776C988.511 113.725 988.122 114.579 987.631 115.336C987.151 116.104 986.618 116.765 986.031 117.32Z" fill="#E4E4EF"/>
<path d="M1.2 148V136.8H2.544L8.512 145.776V136.8H9.856V148H8.512L2.544 139.024V148H1.2Z" fill="#E4E4EF"/>
<path d="M30 142.5C30 139.186 32.6863 136.5 36 136.5H883C886.314 136.5 889 139.186 889 142.5C889 145.814 886.314 148.5 883 148.5H36C32.6863 148.5 30 145.814 30 142.5Z" fill="#21222C"/>
<path d="M30 142.5C30 139.186 32.6863 136.5 36 136.5H96.43C99.7437 136.5 102.43 139.186 102.43 142.5C102.43 145.814 99.7437 148.5 96.43 148.5H36C32.6863 148.5 30 145.814 30 142.5Z" fill="#D3A0FA"/>
<path d="M922.408 148V147.056C923.176 146.459 923.901 145.856 924.584 145.248C925.267 144.64 925.875 144.037 926.408 143.44C926.941 142.832 927.357 142.24 927.656 141.664C927.965 141.088 928.12 140.533 928.12 140C928.12 139.605 928.051 139.243 927.912 138.912C927.773 138.571 927.555 138.293 927.256 138.08C926.957 137.867 926.547 137.76 926.024 137.76C925.533 137.76 925.117 137.872 924.776 138.096C924.445 138.309 924.195 138.597 924.024 138.96C923.864 139.312 923.784 139.701 923.784 140.128H922.488C922.499 139.392 922.659 138.763 922.968 138.24C923.277 137.707 923.699 137.301 924.232 137.024C924.765 136.747 925.368 136.608 926.04 136.608C926.712 136.608 927.304 136.736 927.816 136.992C928.328 137.237 928.728 137.605 929.016 138.096C929.315 138.587 929.464 139.205 929.464 139.952C929.464 140.475 929.357 140.997 929.144 141.52C928.931 142.043 928.643 142.555 928.28 143.056C927.917 143.547 927.512 144.021 927.064 144.48C926.627 144.939 926.173 145.371 925.704 145.776C925.245 146.181 924.808 146.549 924.392 146.88H929.848V148H922.408ZM932.403 148V138.304L930.499 138.768V137.824L932.851 136.8H933.763V148H932.403ZM941.974 150.32C941.398 149.765 940.865 149.104 940.374 148.336C939.884 147.579 939.489 146.725 939.19 145.776C938.902 144.827 938.758 143.792 938.758 142.672C938.758 141.552 938.902 140.517 939.19 139.568C939.489 138.619 939.884 137.76 940.374 136.992C940.865 136.224 941.398 135.568 941.974 135.024H943.35V135.152C942.7 135.792 942.129 136.507 941.638 137.296C941.158 138.085 940.78 138.933 940.502 139.84C940.236 140.736 940.102 141.68 940.102 142.672C940.102 143.664 940.236 144.613 940.502 145.52C940.78 146.416 941.164 147.259 941.654 148.048C942.145 148.837 942.71 149.552 943.35 150.192V150.32H941.974ZM947.567 148.192C946.842 148.192 946.186 148.059 945.599 147.792C945.023 147.515 944.564 147.136 944.223 146.656C943.892 146.165 943.727 145.6 943.727 144.96C943.727 144.501 943.818 144.075 943.999 143.68C944.18 143.285 944.431 142.944 944.751 142.656C945.082 142.357 945.46 142.149 945.887 142.032C945.29 141.819 944.826 141.488 944.495 141.04C944.175 140.592 944.015 140.107 944.015 139.584C944.015 139.029 944.154 138.528 944.431 138.08C944.719 137.632 945.13 137.275 945.663 137.008C946.196 136.741 946.831 136.608 947.567 136.608C948.314 136.608 948.948 136.741 949.471 137.008C950.004 137.275 950.415 137.632 950.703 138.08C950.991 138.528 951.135 139.029 951.135 139.584C951.135 140.107 950.97 140.592 950.639 141.04C950.319 141.488 949.855 141.819 949.247 142.032C949.695 142.149 950.079 142.357 950.399 142.656C950.719 142.944 950.97 143.285 951.151 143.68C951.332 144.075 951.423 144.501 951.423 144.96C951.423 145.6 951.252 146.165 950.911 146.656C950.57 147.136 950.111 147.515 949.535 147.792C948.959 148.059 948.303 148.192 947.567 148.192ZM947.567 147.008C948.41 147.008 949.039 146.816 949.455 146.432C949.871 146.037 950.079 145.52 950.079 144.88C950.079 144.155 949.85 143.605 949.391 143.232C948.943 142.859 948.335 142.672 947.567 142.672C946.81 142.672 946.202 142.859 945.743 143.232C945.295 143.605 945.071 144.155 945.071 144.88C945.071 145.52 945.279 146.037 945.695 146.432C946.111 146.816 946.735 147.008 947.567 147.008ZM947.567 141.552C948.25 141.552 948.788 141.376 949.183 141.024C949.578 140.672 949.775 140.219 949.775 139.664C949.775 139.035 949.578 138.56 949.183 138.24C948.799 137.92 948.26 137.76 947.567 137.76C946.895 137.76 946.362 137.92 945.967 138.24C945.583 138.56 945.391 139.035 945.391 139.664C945.391 140.219 945.583 140.672 945.967 141.024C946.362 141.376 946.895 141.552 947.567 141.552ZM953.437 148.08C953.17 148.08 952.946 147.995 952.765 147.824C952.594 147.643 952.509 147.424 952.509 147.168C952.509 146.912 952.594 146.699 952.765 146.528C952.946 146.347 953.17 146.256 953.437 146.256C953.704 146.256 953.922 146.347 954.093 146.528C954.264 146.699 954.349 146.912 954.349 147.168C954.349 147.424 954.264 147.643 954.093 147.824C953.922 147.995 953.704 148.08 953.437 148.08ZM960.697 148V145.6H955.017V144.56L960.457 136.8H962.025V144.416H963.689V145.6H962.025V148H960.697ZM956.505 144.416H960.761V138.288L956.505 144.416ZM968.232 148.192C967.517 148.192 966.866 148.064 966.28 147.808C965.704 147.541 965.245 147.147 964.904 146.624C964.562 146.101 964.381 145.451 964.36 144.672H965.72C965.73 145.099 965.832 145.493 966.024 145.856C966.226 146.208 966.514 146.491 966.888 146.704C967.261 146.917 967.709 147.024 968.232 147.024C968.754 147.024 969.192 146.923 969.544 146.72C969.896 146.517 970.162 146.251 970.344 145.92C970.525 145.579 970.616 145.2 970.616 144.784C970.616 144.261 970.488 143.84 970.232 143.52C969.986 143.189 969.65 142.944 969.224 142.784C968.808 142.624 968.349 142.544 967.848 142.544H967.016V141.408H967.848C968.584 141.408 969.154 141.243 969.56 140.912C969.976 140.571 970.184 140.101 970.184 139.504C970.184 139.013 970.018 138.603 969.688 138.272C969.368 137.941 968.882 137.776 968.232 137.776C967.602 137.776 967.101 137.957 966.728 138.32C966.354 138.683 966.141 139.147 966.088 139.712H964.728C964.76 139.104 964.925 138.565 965.224 138.096C965.522 137.627 965.928 137.264 966.44 137.008C966.952 136.741 967.549 136.608 968.232 136.608C968.957 136.608 969.565 136.736 970.056 136.992C970.546 137.248 970.914 137.589 971.16 138.016C971.416 138.443 971.544 138.912 971.544 139.424C971.544 139.797 971.474 140.155 971.336 140.496C971.197 140.837 970.989 141.136 970.712 141.392C970.445 141.637 970.098 141.813 969.672 141.92C970.109 142.005 970.498 142.176 970.84 142.432C971.192 142.677 971.469 142.997 971.672 143.392C971.874 143.787 971.976 144.251 971.976 144.784C971.976 145.392 971.832 145.957 971.544 146.48C971.266 146.992 970.85 147.408 970.296 147.728C969.741 148.037 969.053 148.192 968.232 148.192ZM974.404 148L980.916 136.8H982.26L975.748 148H974.404ZM981.444 148.192C980.964 148.192 980.532 148.085 980.148 147.872C979.764 147.648 979.454 147.333 979.22 146.928C978.996 146.523 978.884 146.048 978.884 145.504C978.884 144.949 978.996 144.475 979.22 144.08C979.454 143.675 979.764 143.365 980.148 143.152C980.532 142.928 980.964 142.816 981.444 142.816C981.934 142.816 982.366 142.928 982.74 143.152C983.124 143.365 983.428 143.675 983.652 144.08C983.876 144.475 983.988 144.949 983.988 145.504C983.988 146.048 983.876 146.523 983.652 146.928C983.428 147.333 983.124 147.648 982.74 147.872C982.356 148.085 981.924 148.192 981.444 148.192ZM981.428 147.152C981.684 147.152 981.918 147.093 982.132 146.976C982.345 146.848 982.516 146.661 982.644 146.416C982.782 146.171 982.852 145.867 982.852 145.504C982.852 145.131 982.788 144.821 982.66 144.576C982.532 144.331 982.361 144.149 982.148 144.032C981.934 143.904 981.7 143.84 981.444 143.84C981.198 143.84 980.964 143.904 980.74 144.032C980.526 144.149 980.35 144.331 980.212 144.576C980.084 144.821 980.02 145.131 980.02 145.504C980.02 145.867 980.084 146.171 980.212 146.416C980.35 146.661 980.526 146.848 980.74 146.976C980.953 147.093 981.182 147.152 981.428 147.152ZM975.332 142C974.852 142 974.42 141.893 974.036 141.68C973.652 141.456 973.342 141.141 973.108 140.736C972.884 140.331 972.772 139.856 972.772 139.312C972.772 138.757 972.884 138.283 973.108 137.888C973.342 137.483 973.652 137.173 974.036 136.96C974.43 136.736 974.868 136.624 975.348 136.624C975.828 136.624 976.26 136.736 976.644 136.96C977.028 137.173 977.332 137.483 977.556 137.888C977.78 138.283 977.892 138.757 977.892 139.312C977.892 139.856 977.78 140.331 977.556 140.736C977.332 141.141 977.022 141.456 976.628 141.68C976.244 141.893 975.812 142 975.332 142ZM975.332 140.96C975.588 140.96 975.822 140.901 976.036 140.784C976.249 140.656 976.42 140.469 976.548 140.224C976.676 139.979 976.74 139.675 976.74 139.312C976.74 138.939 976.676 138.629 976.548 138.384C976.42 138.128 976.249 137.941 976.036 137.824C975.822 137.696 975.593 137.632 975.348 137.632C975.102 137.632 974.868 137.696 974.644 137.824C974.42 137.941 974.238 138.128 974.1 138.384C973.972 138.629 973.908 138.939 973.908 139.312C973.908 139.675 973.972 139.979 974.1 140.224C974.238 140.469 974.414 140.656 974.628 140.784C974.852 140.901 975.086 140.96 975.332 140.96ZM986.031 150.32H984.655V150.192C985.306 149.552 985.871 148.837 986.351 148.048C986.842 147.259 987.22 146.416 987.487 145.52C987.764 144.613 987.903 143.664 987.903 142.672C987.903 141.68 987.764 140.736 987.487 139.84C987.22 138.933 986.842 138.085 986.351 137.296C985.871 136.507 985.306 135.792 984.655 135.152V135.024H986.031C986.618 135.568 987.151 136.224 987.631 136.992C988.122 137.76 988.511 138.619 988.799 139.568C989.098 140.517 989.247 141.552 989.247 142.672C989.247 143.792 989.098 144.827 988.799 145.776C988.511 146.725 988.122 147.579 987.631 148.336C987.151 149.104 986.618 149.765 986.031 150.32Z" fill="#E4E4EF"/>
</svg>
