<svg width="246" height="40" viewBox="0 0 246 40" fill="none" xmlns="http://www.w3.org/2000/svg">
<path d="M18.3562 5.82192V0H0V40H18.3562V34.1781C14.5959 34.1781 10.9896 32.6842 8.33074 30.0253C5.67183 27.3664 4.17808 23.7603 4.17808 20C4.17808 16.2397 5.67183 12.6334 8.33074 9.97459C10.9896 7.31568 14.5959 5.82192 18.3562 5.82192Z" fill="#D3A0FA"/>
<path d="M18.3568 5.8219V34.1781C22.1171 34.1781 25.7234 32.6842 28.3823 30.0253C31.0412 27.3664 32.5349 23.7603 32.5349 20C32.5349 16.2397 31.0412 12.6334 28.3823 9.97457C25.7234 7.31567 22.1171 5.8219 18.3568 5.8219Z" fill="#D3A0FA"/>
<path d="M54.1922 28.788C52.5122 28.788 51.0642 28.428 49.8482 27.708C48.6322 26.972 47.6962 25.956 47.0402 24.66C46.3842 23.348 46.0562 21.836 46.0562 20.124C46.0562 18.396 46.3842 16.884 47.0402 15.588C47.6962 14.276 48.6322 13.252 49.8482 12.516C51.0642 11.78 52.5122 11.412 54.1922 11.412C56.1922 11.412 57.8242 11.908 59.0882 12.9C60.3682 13.876 61.1762 15.26 61.5122 17.052H58.3442C58.1202 16.108 57.6562 15.364 56.9522 14.82C56.2642 14.276 55.3362 14.004 54.1682 14.004C53.0962 14.004 52.1762 14.252 51.4082 14.748C50.6402 15.228 50.0482 15.932 49.6322 16.86C49.2162 17.772 49.0082 18.86 49.0082 20.124C49.0082 21.388 49.2162 22.476 49.6322 23.388C50.0482 24.284 50.6402 24.98 51.4082 25.476C52.1762 25.956 53.0962 26.196 54.1682 26.196C55.3362 26.196 56.2642 25.948 56.9522 25.452C57.6562 24.94 58.1122 24.236 58.3202 23.34H61.5122C61.1922 25.036 60.3922 26.372 59.1122 27.348C57.8322 28.308 56.1922 28.788 54.1922 28.788ZM63.1852 28.5V11.22H66.0652V18.468C66.4652 17.796 67.0092 17.268 67.6972 16.884C68.3852 16.5 69.1692 16.308 70.0492 16.308C71.0092 16.308 71.8332 16.516 72.5212 16.932C73.2092 17.332 73.7372 17.94 74.1052 18.756C74.4732 19.556 74.6572 20.548 74.6572 21.732V28.5H71.8012V22.02C71.8012 20.964 71.5852 20.156 71.1532 19.596C70.7372 19.02 70.0812 18.732 69.1852 18.732C68.5932 18.732 68.0572 18.876 67.5772 19.164C67.0972 19.452 66.7212 19.868 66.4492 20.412C66.1932 20.94 66.0652 21.588 66.0652 22.356V28.5H63.1852ZM80.6552 28.788C79.6472 28.788 78.8152 28.628 78.1592 28.308C77.5032 27.972 77.0152 27.532 76.6952 26.988C76.3752 26.428 76.2152 25.82 76.2152 25.164C76.2152 24.412 76.4072 23.764 76.7912 23.22C77.1912 22.66 77.7752 22.228 78.5432 21.924C79.3112 21.604 80.2632 21.444 81.3992 21.444H84.4472C84.4472 20.82 84.3512 20.308 84.1592 19.908C83.9832 19.492 83.7032 19.18 83.3192 18.972C82.9512 18.764 82.4872 18.66 81.9272 18.66C81.2712 18.66 80.6952 18.82 80.1992 19.14C79.7192 19.444 79.4312 19.9 79.3352 20.508H76.5032C76.5832 19.644 76.8712 18.9 77.3672 18.276C77.8632 17.652 78.5112 17.172 79.3112 16.836C80.1112 16.484 80.9912 16.308 81.9512 16.308C83.0712 16.308 84.0312 16.508 84.8312 16.908C85.6472 17.292 86.2632 17.844 86.6792 18.564C87.1112 19.284 87.3272 20.156 87.3272 21.18V28.5H84.8792L84.5912 26.58C84.4312 26.9 84.2232 27.196 83.9672 27.468C83.7272 27.724 83.4472 27.956 83.1272 28.164C82.8072 28.356 82.4392 28.508 82.0232 28.62C81.6232 28.732 81.1672 28.788 80.6552 28.788ZM81.3032 26.508C81.7672 26.508 82.1832 26.428 82.5512 26.268C82.9192 26.092 83.2312 25.852 83.4872 25.548C83.7592 25.244 83.9672 24.9 84.1112 24.516C84.2552 24.132 84.3432 23.732 84.3752 23.316V23.292H81.7112C81.1352 23.292 80.6632 23.364 80.2952 23.508C79.9272 23.652 79.6552 23.852 79.4792 24.108C79.3192 24.348 79.2392 24.628 79.2392 24.948C79.2392 25.284 79.3192 25.572 79.4792 25.812C79.6552 26.036 79.8952 26.212 80.1992 26.34C80.5032 26.452 80.8712 26.508 81.3032 26.508ZM89.3102 28.5V16.596H91.8782L92.1422 18.852C92.4302 18.324 92.7822 17.876 93.1982 17.508C93.6142 17.124 94.1022 16.828 94.6622 16.62C95.2222 16.412 95.8462 16.308 96.5342 16.308V19.332H95.7422C95.2302 19.332 94.7582 19.396 94.3262 19.524C93.8942 19.636 93.5182 19.828 93.1982 20.1C92.8782 20.372 92.6302 20.748 92.4542 21.228C92.2782 21.692 92.1902 22.268 92.1902 22.956V28.5H89.3102ZM101.718 28.788C100.71 28.788 99.8777 28.628 99.2217 28.308C98.5657 27.972 98.0777 27.532 97.7577 26.988C97.4377 26.428 97.2777 25.82 97.2777 25.164C97.2777 24.412 97.4697 23.764 97.8537 23.22C98.2537 22.66 98.8377 22.228 99.6057 21.924C100.374 21.604 101.326 21.444 102.462 21.444H105.51C105.51 20.82 105.414 20.308 105.222 19.908C105.046 19.492 104.766 19.18 104.382 18.972C104.014 18.764 103.55 18.66 102.99 18.66C102.334 18.66 101.758 18.82 101.262 19.14C100.782 19.444 100.494 19.9 100.398 20.508H97.5657C97.6457 19.644 97.9337 18.9 98.4297 18.276C98.9257 17.652 99.5737 17.172 100.374 16.836C101.174 16.484 102.054 16.308 103.014 16.308C104.134 16.308 105.094 16.508 105.894 16.908C106.71 17.292 107.326 17.844 107.742 18.564C108.174 19.284 108.39 20.156 108.39 21.18V28.5H105.942L105.654 26.58C105.494 26.9 105.286 27.196 105.03 27.468C104.79 27.724 104.51 27.956 104.19 28.164C103.87 28.356 103.502 28.508 103.086 28.62C102.686 28.732 102.23 28.788 101.718 28.788ZM102.366 26.508C102.83 26.508 103.246 26.428 103.614 26.268C103.982 26.092 104.294 25.852 104.55 25.548C104.822 25.244 105.03 24.9 105.174 24.516C105.318 24.132 105.406 23.732 105.438 23.316V23.292H102.774C102.198 23.292 101.726 23.364 101.358 23.508C100.99 23.652 100.718 23.852 100.542 24.108C100.382 24.348 100.302 24.628 100.302 24.948C100.302 25.284 100.382 25.572 100.542 25.812C100.718 26.036 100.958 26.212 101.262 26.34C101.566 26.452 101.934 26.508 102.366 26.508ZM116.133 28.788C114.933 28.788 113.869 28.524 112.941 27.996C112.013 27.468 111.285 26.74 110.757 25.812C110.229 24.868 109.965 23.78 109.965 22.548C109.965 21.316 110.229 20.236 110.757 19.308C111.285 18.38 112.013 17.652 112.941 17.124C113.869 16.58 114.933 16.308 116.133 16.308C117.637 16.308 118.901 16.7 119.925 17.484C120.949 18.268 121.605 19.34 121.893 20.7H118.845C118.701 20.092 118.381 19.62 117.885 19.284C117.389 18.948 116.797 18.78 116.109 18.78C115.517 18.78 114.981 18.924 114.501 19.212C114.021 19.5 113.629 19.932 113.325 20.508C113.037 21.068 112.893 21.748 112.893 22.548C112.893 23.14 112.973 23.676 113.133 24.156C113.309 24.62 113.541 25.02 113.829 25.356C114.133 25.676 114.477 25.924 114.861 26.1C115.261 26.26 115.677 26.34 116.109 26.34C116.573 26.34 116.989 26.268 117.357 26.124C117.725 25.964 118.037 25.74 118.293 25.452C118.565 25.164 118.749 24.812 118.845 24.396H121.893C121.605 25.724 120.949 26.788 119.925 27.588C118.901 28.388 117.637 28.788 116.133 28.788ZM128.619 28.5C127.819 28.5 127.115 28.372 126.507 28.116C125.899 27.86 125.427 27.436 125.091 26.844C124.771 26.252 124.611 25.452 124.611 24.444V18.996H122.571V16.596H124.611L124.947 13.476H127.491V16.596H130.755V18.996H127.491V24.444C127.491 25.052 127.619 25.476 127.875 25.716C128.131 25.94 128.579 26.052 129.219 26.052H130.659V28.5H128.619ZM137.803 28.788C136.603 28.788 135.539 28.532 134.611 28.02C133.699 27.492 132.979 26.772 132.451 25.86C131.939 24.932 131.683 23.852 131.683 22.62C131.683 21.372 131.939 20.276 132.451 19.332C132.963 18.388 133.675 17.652 134.587 17.124C135.515 16.58 136.587 16.308 137.803 16.308C138.987 16.308 140.019 16.572 140.899 17.1C141.779 17.612 142.467 18.3 142.963 19.164C143.459 20.028 143.707 21.004 143.707 22.092C143.707 22.252 143.699 22.428 143.683 22.62C143.683 22.812 143.675 23.02 143.659 23.244H133.747V21.396H140.803C140.755 20.548 140.451 19.884 139.891 19.404C139.331 18.908 138.635 18.66 137.803 18.66C137.211 18.66 136.659 18.796 136.147 19.068C135.651 19.324 135.251 19.716 134.947 20.244C134.659 20.756 134.515 21.412 134.515 22.212V22.908C134.515 23.644 134.659 24.276 134.947 24.804C135.235 25.316 135.627 25.716 136.123 26.004C136.619 26.276 137.171 26.412 137.779 26.412C138.435 26.412 138.987 26.268 139.435 25.98C139.883 25.676 140.219 25.276 140.443 24.78H143.347C143.139 25.548 142.771 26.236 142.243 26.844C141.731 27.436 141.099 27.908 140.347 28.26C139.595 28.612 138.747 28.788 137.803 28.788ZM145.318 28.5V16.596H147.886L148.15 18.852C148.438 18.324 148.79 17.876 149.206 17.508C149.622 17.124 150.11 16.828 150.67 16.62C151.23 16.412 151.854 16.308 152.542 16.308V19.332H151.75C151.238 19.332 150.766 19.396 150.334 19.524C149.902 19.636 149.526 19.828 149.206 20.1C148.886 20.372 148.638 20.748 148.462 21.228C148.286 21.692 148.198 22.268 148.198 22.956V28.5H145.318ZM166.137 28.788C164.457 28.788 163.009 28.428 161.793 27.708C160.577 26.972 159.641 25.956 158.985 24.66C158.329 23.348 158.001 21.836 158.001 20.124C158.001 18.396 158.329 16.884 158.985 15.588C159.641 14.276 160.577 13.252 161.793 12.516C163.009 11.78 164.457 11.412 166.137 11.412C168.137 11.412 169.769 11.908 171.033 12.9C172.313 13.876 173.121 15.26 173.457 17.052H170.289C170.065 16.108 169.601 15.364 168.897 14.82C168.209 14.276 167.281 14.004 166.113 14.004C165.041 14.004 164.121 14.252 163.353 14.748C162.585 15.228 161.993 15.932 161.577 16.86C161.161 17.772 160.953 18.86 160.953 20.124C160.953 21.388 161.161 22.476 161.577 23.388C161.993 24.284 162.585 24.98 163.353 25.476C164.121 25.956 165.041 26.196 166.113 26.196C167.281 26.196 168.209 25.948 168.897 25.452C169.601 24.94 170.057 24.236 170.265 23.34H173.457C173.137 25.036 172.337 26.372 171.057 27.348C169.777 28.308 168.137 28.788 166.137 28.788ZM180.77 28.788C179.634 28.788 178.602 28.524 177.674 27.996C176.762 27.468 176.042 26.74 175.514 25.812C174.986 24.868 174.722 23.78 174.722 22.548C174.722 21.316 174.986 20.228 175.514 19.284C176.058 18.34 176.786 17.612 177.698 17.1C178.626 16.572 179.658 16.308 180.794 16.308C181.946 16.308 182.978 16.572 183.89 17.1C184.802 17.612 185.522 18.34 186.05 19.284C186.594 20.212 186.866 21.3 186.866 22.548C186.866 23.78 186.594 24.868 186.05 25.812C185.522 26.74 184.794 27.468 183.866 27.996C182.954 28.524 181.922 28.788 180.77 28.788ZM180.77 26.316C181.346 26.316 181.866 26.18 182.33 25.908C182.81 25.62 183.194 25.196 183.482 24.636C183.77 24.076 183.914 23.38 183.914 22.548C183.914 21.716 183.77 21.02 183.482 20.46C183.194 19.9 182.81 19.484 182.33 19.212C181.866 18.924 181.354 18.78 180.794 18.78C180.25 18.78 179.738 18.924 179.258 19.212C178.778 19.484 178.386 19.9 178.082 20.46C177.794 21.02 177.65 21.716 177.65 22.548C177.65 23.364 177.794 24.06 178.082 24.636C178.386 25.196 178.77 25.62 179.234 25.908C179.714 26.18 180.226 26.316 180.77 26.316ZM193.031 28.788C192.071 28.788 191.239 28.588 190.535 28.188C189.847 27.772 189.319 27.164 188.951 26.364C188.583 25.548 188.399 24.548 188.399 23.364V16.596H191.279V23.076C191.279 24.148 191.495 24.964 191.927 25.524C192.359 26.084 193.023 26.364 193.919 26.364C194.511 26.364 195.039 26.22 195.503 25.932C195.967 25.644 196.327 25.236 196.583 24.708C196.855 24.164 196.991 23.508 196.991 22.74V16.596H199.871V28.5H197.327L197.111 26.46C196.743 27.164 196.207 27.732 195.503 28.164C194.799 28.58 193.975 28.788 193.031 28.788ZM202.029 28.5V16.596H204.573L204.789 18.636C205.173 17.932 205.709 17.372 206.397 16.956C207.101 16.524 207.917 16.308 208.845 16.308C209.837 16.308 210.677 16.516 211.365 16.932C212.053 17.332 212.581 17.94 212.949 18.756C213.317 19.556 213.501 20.548 213.501 21.732V28.5H210.645V22.02C210.645 20.964 210.421 20.156 209.973 19.596C209.541 19.02 208.869 18.732 207.957 18.732C207.365 18.732 206.837 18.876 206.373 19.164C205.925 19.452 205.565 19.868 205.293 20.412C205.037 20.94 204.909 21.588 204.909 22.356V28.5H202.029ZM220.627 28.5C219.827 28.5 219.123 28.372 218.515 28.116C217.907 27.86 217.435 27.436 217.099 26.844C216.779 26.252 216.619 25.452 216.619 24.444V18.996H214.579V16.596H216.619L216.955 13.476H219.499V16.596H222.763V18.996H219.499V24.444C219.499 25.052 219.627 25.476 219.883 25.716C220.139 25.94 220.587 26.052 221.227 26.052H222.667V28.5H220.627ZM229.811 28.788C228.611 28.788 227.547 28.532 226.619 28.02C225.707 27.492 224.987 26.772 224.459 25.86C223.947 24.932 223.691 23.852 223.691 22.62C223.691 21.372 223.947 20.276 224.459 19.332C224.971 18.388 225.683 17.652 226.595 17.124C227.523 16.58 228.595 16.308 229.811 16.308C230.995 16.308 232.027 16.572 232.907 17.1C233.787 17.612 234.475 18.3 234.971 19.164C235.467 20.028 235.715 21.004 235.715 22.092C235.715 22.252 235.707 22.428 235.691 22.62C235.691 22.812 235.683 23.02 235.667 23.244H225.755V21.396H232.811C232.763 20.548 232.459 19.884 231.899 19.404C231.339 18.908 230.643 18.66 229.811 18.66C229.219 18.66 228.667 18.796 228.155 19.068C227.659 19.324 227.259 19.716 226.955 20.244C226.667 20.756 226.523 21.412 226.523 22.212V22.908C226.523 23.644 226.667 24.276 226.955 24.804C227.243 25.316 227.635 25.716 228.131 26.004C228.627 26.276 229.179 26.412 229.787 26.412C230.443 26.412 230.995 26.268 231.443 25.98C231.891 25.676 232.227 25.276 232.451 24.78H235.355C235.147 25.548 234.779 26.236 234.251 26.844C233.739 27.436 233.107 27.908 232.355 28.26C231.603 28.612 230.755 28.788 229.811 28.788ZM237.326 28.5V16.596H239.894L240.158 18.852C240.446 18.324 240.798 17.876 241.214 17.508C241.63 17.124 242.118 16.828 242.678 16.62C243.238 16.412 243.862 16.308 244.55 16.308V19.332H243.758C243.246 19.332 242.774 19.396 242.342 19.524C241.91 19.636 241.534 19.828 241.214 20.1C240.894 20.372 240.646 20.748 240.47 21.228C240.294 21.692 240.206 22.268 240.206 22.956V28.5H237.326Z" fill="#E4E4EF"/>
</svg>
