<svg width="150" height="150" viewBox="0 0 150 150" fill="none" xmlns="http://www.w3.org/2000/svg">
<g clip-path="url(#clip0_208_119)">
<mask id="mask0_208_119" style="mask-type:luminance" maskUnits="userSpaceOnUse" x="0" y="0" width="150" height="150">
<path d="M150 150L150 0L0 -6.55671e-06L-6.55671e-06 150L150 150Z" fill="white"/>
</mask>
<g mask="url(#mask0_208_119)">
<path fill-rule="evenodd" clip-rule="evenodd" d="M113.25 -1.60639e-06L113.25 20.625L113.25 21L113.254 21C113.454 29.7324 120.595 36.75 129.375 36.75L150 36.75L150 41.25L129 41.25C120.301 41.25 113.25 48.3015 113.25 57C113.25 65.6985 120.301 72.75 129 72.75L150 72.75L150 77.25L129 77.25C120.301 77.25 113.25 84.3015 113.25 93C113.25 101.698 120.301 108.75 129 108.75L150 108.75L150 114L129 114C120.301 114 113.25 121.051 113.25 129.75L113.25 150L108.75 150L108.75 129C108.75 120.301 101.698 113.25 93 113.25C84.3015 113.25 77.25 120.301 77.25 129L77.25 150L72.75 150L72.75 129C72.75 120.301 65.6985 113.25 57 113.25C48.3015 113.25 41.25 120.301 41.25 129L41.25 150L36.75 150L36.75 129.75C36.75 121.051 29.6985 114 21 114L20.25 114L-4.9831e-06 114L-4.75361e-06 108.75L21 108.75C29.6985 108.75 36.75 101.698 36.75 93C36.75 84.3015 29.6985 77.25 21 77.25L-3.3767e-06 77.25L-3.18e-06 72.75L21 72.75C29.6985 72.75 36.75 65.6985 36.75 57C36.75 48.3015 29.6985 41.25 21 41.25L-1.80309e-06 41.25L-1.60639e-06 36.75L20.625 36.75C29.4052 36.75 36.5468 29.7324 36.7455 21L36.75 21L36.75 20.625L36.75 -4.95031e-06L41.25 -4.75361e-06L41.25 21C41.25 29.6985 48.3015 36.75 57 36.75C65.6985 36.75 72.75 29.6985 72.75 21L72.75 -3.3767e-06L77.25 -3.18e-06L77.25 21C77.25 29.6985 84.3015 36.75 93 36.75C101.698 36.75 108.75 29.6985 108.75 21L108.75 -1.80309e-06L113.25 -1.60639e-06ZM77.25 57C77.25 65.6985 84.3015 72.75 93 72.75C101.698 72.75 108.75 65.6985 108.75 57C108.75 48.3015 101.698 41.25 93 41.25C84.3015 41.25 77.25 48.3015 77.25 57ZM77.25 93C77.25 101.698 84.3015 108.75 93 108.75C101.698 108.75 108.75 101.698 108.75 93C108.75 84.3015 101.698 77.25 93 77.25C84.3015 77.25 77.25 84.3015 77.25 93ZM57 72.75C48.3015 72.75 41.25 65.6985 41.25 57C41.25 48.3015 48.3015 41.25 57 41.25C65.6985 41.25 72.75 48.3015 72.75 57C72.75 65.6985 65.6985 72.75 57 72.75ZM41.25 93C41.25 101.698 48.3015 108.75 57 108.75C65.6985 108.75 72.75 101.698 72.75 93C72.75 84.3015 65.6985 77.25 57 77.25C48.3015 77.25 41.25 84.3015 41.25 93Z" fill="#DEBAFC"/>
</g>
</g>
<defs>
<clipPath id="clip0_208_119">
<rect width="150" height="150" fill="white" transform="translate(150) rotate(90)"/>
</clipPath>
</defs>
</svg>
