<svg width="150" height="150" viewBox="0 0 150 150" fill="none" xmlns="http://www.w3.org/2000/svg">
<g clip-path="url(#clip0_208_137)">
<mask id="mask0_208_137" style="mask-type:luminance" maskUnits="userSpaceOnUse" x="0" y="0" width="150" height="150">
<path d="M0 0L0 150H150V0H0Z" fill="white"/>
</mask>
<g mask="url(#mask0_208_137)">
<path fill-rule="evenodd" clip-rule="evenodd" d="M32.4418 130.99L32.4417 150H42.5583V130.99C42.5583 123.572 48.572 117.558 55.9901 117.558H56.0267H75H93.972H94.0103C101.428 117.558 107.442 123.572 107.442 130.99V150H117.558V130.99C117.558 123.572 123.572 117.558 130.991 117.558H131.026H150V107.442H131.026H130.991C123.572 107.442 117.558 101.429 117.558 94.0103V75V55.9901C117.558 48.5718 123.572 42.5582 130.991 42.5582L131.026 42.5582H150V32.4418H131.026H130.991C123.572 32.4418 117.558 26.4281 117.558 19.01V0L107.442 4.42207e-07V19.01C107.442 26.4281 101.428 32.4419 94.0103 32.4419L93.9735 32.4418H75H56.0266L55.9901 32.4419C48.572 32.4419 42.5583 26.4282 42.5583 19.01V3.27835e-06L32.4417 3.72056e-06V19.01C32.4418 26.4282 26.4281 32.4419 19.0099 32.4419L18.9734 32.4418H0L5.62875e-08 42.5582H18.9723L19.0099 42.5582C26.4281 42.5582 32.4418 48.5718 32.4418 55.9901L32.4417 75V94.0103C32.4418 101.429 26.4281 107.442 19.0099 107.442H18.9734H0L5.62875e-08 117.558H18.9723H19.0099C26.4281 117.558 32.4418 123.572 32.4418 130.99ZM107.442 75V55.9901C107.442 48.5718 101.428 42.5582 94.0103 42.5582L93.972 42.5582H75H56.0267L55.9901 42.5582C48.572 42.5582 42.5583 48.5718 42.5583 55.9901V75V94.0103C42.5583 101.429 48.572 107.442 55.9901 107.442H56.0266H75H93.9735H94.0103C101.428 107.442 107.442 101.429 107.442 94.0103V75Z" fill="#FA9A82"/>
</g>
</g>
<defs>
<clipPath id="clip0_208_137">
<rect width="150" height="150" fill="white"/>
</clipPath>
</defs>
</svg>
